<svg xmlns="http://www.w3.org/2000/svg" xmlns:xlink="http://www.w3.org/1999/xlink" width="200" zoomAndPan="magnify" viewBox="0 0 150 74.999997" height="100" preserveAspectRatio="xMidYMid meet" version="1.0"><defs><g/><clipPath id="fae483aeca"><path d="M 126 20 L 140 20 L 140 34 L 126 34 Z M 126 20 " clip-rule="nonzero"/></clipPath><clipPath id="4b6f393d3b"><path d="M 123.589844 22.570312 L 132.953125 13.914062 L 146.1875 28.234375 L 136.824219 36.890625 Z M 123.589844 22.570312 " clip-rule="nonzero"/></clipPath><clipPath id="8030058cdb"><path d="M 123.589844 22.570312 L 132.953125 13.914062 L 146.1875 28.234375 L 136.824219 36.890625 Z M 123.589844 22.570312 " clip-rule="nonzero"/></clipPath><clipPath id="8e7500b9af"><path d="M 133 14 L 147 14 L 147 28 L 133 28 Z M 133 14 " clip-rule="nonzero"/></clipPath><clipPath id="b4f32f610d"><path d="M 130.414062 16.261719 L 139.777344 7.605469 L 153.015625 21.925781 L 143.652344 30.582031 Z M 130.414062 16.261719 " clip-rule="nonzero"/></clipPath><clipPath id="7f906addc4"><path d="M 130.414062 16.261719 L 139.777344 7.605469 L 153.015625 21.925781 L 143.652344 30.582031 Z M 130.414062 16.261719 " clip-rule="nonzero"/></clipPath></defs><g clip-path="url(#fae483aeca)"><g clip-path="url(#4b6f393d3b)"><g clip-path="url(#8030058cdb)"><path fill="#2563eb" d="M 139.707031 21 L 128.183594 20.488281 C 125.957031 20.390625 125.582031 24.726562 128.21875 24.796875 L 135.390625 24.992188 L 134.84375 32.207031 C 134.675781 34.402344 138.960938 34.636719 139.082031 32.402344 Z M 139.707031 21 " fill-opacity="1" fill-rule="nonzero"/></g></g></g><g clip-path="url(#8e7500b9af)"><g clip-path="url(#b4f32f610d)"><g clip-path="url(#7f906addc4)"><path fill="#2563eb" d="M 146.535156 14.691406 L 135.007812 14.179688 C 132.785156 14.082031 132.40625 18.417969 135.046875 18.488281 L 142.214844 18.683594 L 141.667969 25.898438 C 141.5 28.09375 145.785156 28.328125 145.910156 26.09375 Z M 146.535156 14.691406 " fill-opacity="1" fill-rule="nonzero"/></g></g></g><g fill="#2563eb" fill-opacity="1"><g transform="translate(0.50236, 49.769821)"><g><path d="M 4.046875 -21.859375 C 4.785156 -21.859375 5.367188 -21.519531 5.796875 -20.84375 L 12.96875 -9.609375 L 20.109375 -20.875 C 20.335938 -21.21875 20.617188 -21.46875 20.953125 -21.625 C 21.285156 -21.78125 21.613281 -21.859375 21.9375 -21.859375 C 22.4375 -21.859375 22.878906 -21.691406 23.265625 -21.359375 C 23.660156 -21.035156 23.859375 -20.5625 23.859375 -19.9375 L 23.859375 -1.78125 C 23.859375 -1.1875 23.640625 -0.738281 23.203125 -0.4375 C 22.765625 -0.144531 22.304688 0 21.828125 0 C 21.328125 0 20.875 -0.144531 20.46875 -0.4375 C 20.070312 -0.738281 19.875 -1.1875 19.875 -1.78125 L 19.875 -13.359375 L 14.765625 -5.359375 C 14.578125 -5.015625 14.316406 -4.757812 13.984375 -4.59375 C 13.648438 -4.4375 13.3125 -4.359375 12.96875 -4.359375 C 12.632812 -4.359375 12.285156 -4.453125 11.921875 -4.640625 C 11.566406 -4.835938 11.300781 -5.109375 11.125 -5.453125 L 6.078125 -13.3125 L 6.078125 -1.78125 C 6.078125 -1.1875 5.863281 -0.738281 5.4375 -0.4375 C 5.019531 -0.144531 4.566406 0 4.078125 0 C 3.578125 0 3.117188 -0.144531 2.703125 -0.4375 C 2.296875 -0.738281 2.09375 -1.1875 2.09375 -1.78125 L 2.09375 -19.90625 C 2.09375 -20.5 2.289062 -20.972656 2.6875 -21.328125 C 3.09375 -21.679688 3.546875 -21.859375 4.046875 -21.859375 Z M 4.046875 -21.859375 "/></g></g></g><g fill="#2563eb" fill-opacity="1"><g transform="translate(26.720612, 49.769821)"><g><path d="M 17.890625 -3.4375 C 18.484375 -3.4375 18.941406 -3.242188 19.265625 -2.859375 C 19.597656 -2.484375 19.765625 -2.078125 19.765625 -1.640625 C 19.765625 -1.234375 19.609375 -0.859375 19.296875 -0.515625 C 18.992188 -0.171875 18.523438 0 17.890625 0 L 4.25 0 C 3.570312 0 3.023438 -0.195312 2.609375 -0.59375 C 2.191406 -1 1.984375 -1.488281 1.984375 -2.0625 L 1.984375 -19.84375 C 1.984375 -20.394531 2.191406 -20.867188 2.609375 -21.265625 C 3.023438 -21.660156 3.570312 -21.859375 4.25 -21.859375 L 17.890625 -21.859375 C 18.503906 -21.859375 18.957031 -21.691406 19.25 -21.359375 C 19.550781 -21.035156 19.703125 -20.65625 19.703125 -20.21875 C 19.703125 -19.800781 19.546875 -19.410156 19.234375 -19.046875 C 18.929688 -18.679688 18.484375 -18.5 17.890625 -18.5 L 5.90625 -18.5 L 5.90625 -12.5 L 17.265625 -12.5 C 17.859375 -12.5 18.300781 -12.320312 18.59375 -11.96875 C 18.894531 -11.613281 19.046875 -11.21875 19.046875 -10.78125 C 19.046875 -10.363281 18.894531 -9.984375 18.59375 -9.640625 C 18.300781 -9.296875 17.859375 -9.125 17.265625 -9.125 L 5.90625 -9.125 L 5.90625 -3.4375 Z M 17.890625 -3.4375 "/></g></g></g><g fill="#2563eb" fill-opacity="1"><g transform="translate(47.345112, 49.769821)"><g><path d="M 19.8125 -3.359375 C 20.332031 -2.816406 20.582031 -2.285156 20.5625 -1.765625 C 20.539062 -1.253906 20.347656 -0.832031 19.984375 -0.5 C 19.617188 -0.164062 19.1875 0.00390625 18.6875 0.015625 C 18.195312 0.0234375 17.734375 -0.195312 17.296875 -0.65625 L 11.15625 -7.203125 L 5.96875 -7.203125 L 5.96875 -1.78125 C 5.96875 -1.207031 5.753906 -0.765625 5.328125 -0.453125 C 4.910156 -0.148438 4.460938 0 3.984375 0 C 3.484375 0 3.023438 -0.144531 2.609375 -0.4375 C 2.191406 -0.738281 1.984375 -1.175781 1.984375 -1.75 L 1.984375 -20.078125 C 1.984375 -20.609375 2.171875 -21.035156 2.546875 -21.359375 C 2.929688 -21.691406 3.410156 -21.859375 3.984375 -21.859375 L 11.640625 -21.859375 C 13.703125 -21.859375 15.414062 -21.523438 16.78125 -20.859375 C 18.15625 -20.203125 19.1875 -19.3125 19.875 -18.1875 C 20.5625 -17.070312 20.90625 -15.828125 20.90625 -14.453125 C 20.90625 -12.847656 20.472656 -11.441406 19.609375 -10.234375 C 18.753906 -9.035156 17.445312 -8.1875 15.6875 -7.6875 Z M 5.96875 -10.53125 L 11.671875 -10.53125 C 13.503906 -10.53125 14.84375 -10.914062 15.6875 -11.6875 C 16.53125 -12.457031 16.929688 -13.367188 16.890625 -14.421875 C 16.867188 -15.566406 16.398438 -16.515625 15.484375 -17.265625 C 14.566406 -18.023438 13.296875 -18.40625 11.671875 -18.40625 L 5.96875 -18.40625 Z M 5.96875 -10.53125 "/></g></g></g><g fill="#2563eb" fill-opacity="1"><g transform="translate(68.58733, 49.769821)"><g><path d="M 16.546875 -20.1875 C 16.546875 -20.738281 16.769531 -21.15625 17.21875 -21.4375 C 17.664062 -21.71875 18.140625 -21.859375 18.640625 -21.859375 C 19.171875 -21.859375 19.632812 -21.726562 20.03125 -21.46875 C 20.425781 -21.207031 20.625 -20.78125 20.625 -20.1875 L 20.625 -2.0625 C 20.625 -1.375 20.382812 -0.859375 19.90625 -0.515625 C 19.425781 -0.171875 18.898438 0 18.328125 0 C 17.941406 0 17.554688 -0.0859375 17.171875 -0.265625 C 16.796875 -0.453125 16.492188 -0.695312 16.265625 -1 L 5.765625 -14.515625 L 5.90625 -12.59375 L 5.90625 -1.8125 C 5.90625 -1.175781 5.691406 -0.710938 5.265625 -0.421875 C 4.847656 -0.140625 4.382812 0 3.875 0 C 3.351562 0 2.878906 -0.140625 2.453125 -0.421875 C 2.023438 -0.710938 1.8125 -1.175781 1.8125 -1.8125 L 1.8125 -19.765625 C 1.8125 -20.453125 2.023438 -20.972656 2.453125 -21.328125 C 2.878906 -21.679688 3.363281 -21.859375 3.90625 -21.859375 C 4.34375 -21.859375 4.71875 -21.773438 5.03125 -21.609375 C 5.34375 -21.441406 5.632812 -21.1875 5.90625 -20.84375 L 16.6875 -6.828125 L 16.546875 -9.125 Z M 16.546875 -20.1875 "/></g></g></g><g fill="#2563eb" fill-opacity="1"><g transform="translate(90.99634, 49.769821)"><g><path d="M 5.15625 -20.046875 C 5.15625 -19.472656 4.941406 -19.039062 4.515625 -18.75 C 4.085938 -18.46875 3.632812 -18.328125 3.15625 -18.328125 C 2.65625 -18.328125 2.195312 -18.46875 1.78125 -18.75 C 1.375 -19.039062 1.171875 -19.472656 1.171875 -20.046875 L 1.171875 -20.5 C 1.171875 -21.09375 1.375 -21.523438 1.78125 -21.796875 C 2.195312 -22.066406 2.65625 -22.203125 3.15625 -22.203125 C 3.632812 -22.203125 4.085938 -22.066406 4.515625 -21.796875 C 4.941406 -21.523438 5.15625 -21.09375 5.15625 -20.5 Z M 1.203125 -15.796875 C 1.203125 -16.335938 1.410156 -16.75 1.828125 -17.03125 C 2.253906 -17.320312 2.695312 -17.46875 3.15625 -17.46875 C 3.632812 -17.46875 4.078125 -17.320312 4.484375 -17.03125 C 4.898438 -16.75 5.109375 -16.347656 5.109375 -15.828125 L 5.109375 -1.6875 C 5.109375 -1.113281 4.898438 -0.6875 4.484375 -0.40625 C 4.078125 -0.132812 3.632812 0 3.15625 0 C 2.695312 0 2.253906 -0.132812 1.828125 -0.40625 C 1.410156 -0.6875 1.203125 -1.113281 1.203125 -1.6875 Z M 1.203125 -15.796875 "/></g></g></g><g fill="#2563eb" fill-opacity="1"><g transform="translate(96.624102, 49.769821)"><g><path d="M 7.890625 -19.359375 C 7.484375 -19.359375 7.109375 -19.21875 6.765625 -18.9375 C 6.421875 -18.664062 6.25 -18.242188 6.25 -17.671875 L 6.25 -17.09375 L 8.515625 -17.09375 C 9.085938 -17.09375 9.503906 -16.921875 9.765625 -16.578125 C 10.023438 -16.234375 10.15625 -15.867188 10.15625 -15.484375 C 10.15625 -15.066406 10.023438 -14.691406 9.765625 -14.359375 C 9.503906 -14.035156 9.085938 -13.875 8.515625 -13.875 L 6.25 -13.875 L 6.25 -1.71875 C 6.25 -1.144531 6.039062 -0.710938 5.625 -0.421875 C 5.21875 -0.140625 4.773438 0 4.296875 0 C 3.785156 0 3.328125 -0.140625 2.921875 -0.421875 C 2.523438 -0.710938 2.328125 -1.144531 2.328125 -1.71875 L 2.328125 -13.875 L 1.4375 -13.875 C 0.863281 -13.875 0.425781 -14.035156 0.125 -14.359375 C -0.164062 -14.691406 -0.3125 -15.066406 -0.3125 -15.484375 C -0.3125 -15.867188 -0.164062 -16.234375 0.125 -16.578125 C 0.425781 -16.921875 0.863281 -17.09375 1.4375 -17.09375 L 2.328125 -17.09375 L 2.328125 -17.671875 C 2.328125 -18.753906 2.582031 -19.664062 3.09375 -20.40625 C 3.613281 -21.15625 4.289062 -21.722656 5.125 -22.109375 C 5.96875 -22.492188 6.847656 -22.6875 7.765625 -22.6875 C 8.421875 -22.6875 9.066406 -22.59375 9.703125 -22.40625 C 10.347656 -22.226562 10.9375 -21.910156 11.46875 -21.453125 C 11.90625 -21.066406 12.113281 -20.644531 12.09375 -20.1875 C 12.082031 -19.726562 11.921875 -19.328125 11.609375 -18.984375 C 11.304688 -18.640625 10.925781 -18.429688 10.46875 -18.359375 C 10.007812 -18.296875 9.550781 -18.46875 9.09375 -18.875 C 8.769531 -19.195312 8.367188 -19.359375 7.890625 -19.359375 Z M 7.890625 -19.359375 "/></g></g></g><g fill="#2563eb" fill-opacity="1"><g transform="translate(107.330853, 49.769821)"><g><path d="M 16 -17.46875 C 16.59375 -17.46875 17.097656 -17.207031 17.515625 -16.6875 C 17.941406 -16.175781 18.03125 -15.582031 17.78125 -14.90625 L 7.765625 4.765625 C 7.535156 5.203125 7.238281 5.546875 6.875 5.796875 C 6.519531 6.046875 6.148438 6.171875 5.765625 6.171875 C 5.378906 6.171875 5.019531 6.039062 4.6875 5.78125 C 4.351562 5.519531 4.125 5.179688 4 4.765625 C 3.875 4.359375 3.925781 3.925781 4.15625 3.46875 L 6.765625 -1.6875 L 0 -14.765625 C -0.207031 -15.222656 -0.234375 -15.65625 -0.078125 -16.0625 C 0.0664062 -16.476562 0.3125 -16.816406 0.65625 -17.078125 C 1 -17.335938 1.375 -17.46875 1.78125 -17.46875 C 2.144531 -17.46875 2.5 -17.351562 2.84375 -17.125 C 3.1875 -16.894531 3.441406 -16.597656 3.609375 -16.234375 L 8.890625 -5.90625 L 14.171875 -16.265625 C 14.335938 -16.640625 14.578125 -16.929688 14.890625 -17.140625 C 15.210938 -17.359375 15.582031 -17.46875 16 -17.46875 Z M 16 -17.46875 "/></g></g></g><g fill="#ffffff" fill-opacity="1"><g transform="translate(9.7574, 60.325852)"><g><path d="M 3.078125 0.078125 C 2.585938 0.078125 2.15625 -0.00390625 1.78125 -0.171875 C 1.414062 -0.347656 1.128906 -0.582031 0.921875 -0.875 C 0.722656 -1.175781 0.609375 -1.507812 0.578125 -1.875 L 1.09375 -1.875 C 1.144531 -1.476562 1.328125 -1.125 1.640625 -0.8125 C 1.953125 -0.5 2.429688 -0.34375 3.078125 -0.34375 C 3.453125 -0.34375 3.773438 -0.410156 4.046875 -0.546875 C 4.328125 -0.679688 4.539062 -0.867188 4.6875 -1.109375 C 4.84375 -1.347656 4.921875 -1.613281 4.921875 -1.90625 C 4.921875 -2.269531 4.832031 -2.554688 4.65625 -2.765625 C 4.476562 -2.984375 4.257812 -3.144531 4 -3.25 C 3.738281 -3.363281 3.382812 -3.484375 2.9375 -3.609375 C 2.445312 -3.734375 2.050781 -3.859375 1.75 -3.984375 C 1.457031 -4.117188 1.207031 -4.320312 1 -4.59375 C 0.789062 -4.863281 0.6875 -5.234375 0.6875 -5.703125 C 0.6875 -6.054688 0.78125 -6.382812 0.96875 -6.6875 C 1.164062 -6.988281 1.441406 -7.222656 1.796875 -7.390625 C 2.148438 -7.566406 2.554688 -7.65625 3.015625 -7.65625 C 3.679688 -7.65625 4.21875 -7.488281 4.625 -7.15625 C 5.039062 -6.820312 5.285156 -6.414062 5.359375 -5.9375 L 4.84375 -5.9375 C 4.800781 -6.132812 4.707031 -6.332031 4.5625 -6.53125 C 4.414062 -6.726562 4.207031 -6.894531 3.9375 -7.03125 C 3.664062 -7.164062 3.34375 -7.234375 2.96875 -7.234375 C 2.46875 -7.234375 2.039062 -7.09375 1.6875 -6.8125 C 1.34375 -6.539062 1.171875 -6.175781 1.171875 -5.71875 C 1.171875 -5.34375 1.257812 -5.046875 1.4375 -4.828125 C 1.625 -4.609375 1.847656 -4.441406 2.109375 -4.328125 C 2.367188 -4.222656 2.722656 -4.113281 3.171875 -4 C 3.671875 -3.863281 4.066406 -3.726562 4.359375 -3.59375 C 4.648438 -3.46875 4.894531 -3.269531 5.09375 -3 C 5.300781 -2.738281 5.40625 -2.375 5.40625 -1.90625 C 5.40625 -1.570312 5.316406 -1.253906 5.140625 -0.953125 C 4.960938 -0.648438 4.695312 -0.398438 4.34375 -0.203125 C 4 -0.015625 3.578125 0.078125 3.078125 0.078125 Z M 3.078125 0.078125 "/></g></g></g><g fill="#ffffff" fill-opacity="1"><g transform="translate(15.327964, 60.325852)"><g><path d="M 6.171875 -3.328125 C 6.171875 -3.066406 6.160156 -2.875 6.140625 -2.75 L 1.078125 -2.75 C 1.085938 -2.21875 1.203125 -1.769531 1.421875 -1.40625 C 1.640625 -1.050781 1.925781 -0.78125 2.28125 -0.59375 C 2.632812 -0.414062 3.019531 -0.328125 3.4375 -0.328125 C 4.007812 -0.328125 4.488281 -0.46875 4.875 -0.75 C 5.269531 -1.039062 5.515625 -1.429688 5.609375 -1.921875 L 6.125 -1.921875 C 6.007812 -1.328125 5.710938 -0.84375 5.234375 -0.46875 C 4.765625 -0.09375 4.164062 0.09375 3.4375 0.09375 C 2.882812 0.09375 2.390625 -0.0234375 1.953125 -0.265625 C 1.523438 -0.515625 1.1875 -0.867188 0.9375 -1.328125 C 0.695312 -1.785156 0.578125 -2.320312 0.578125 -2.9375 C 0.578125 -3.550781 0.695312 -4.082031 0.9375 -4.53125 C 1.1875 -4.988281 1.523438 -5.335938 1.953125 -5.578125 C 2.390625 -5.816406 2.882812 -5.9375 3.4375 -5.9375 C 4 -5.9375 4.484375 -5.816406 4.890625 -5.578125 C 5.304688 -5.335938 5.625 -5.015625 5.84375 -4.609375 C 6.0625 -4.210938 6.171875 -3.785156 6.171875 -3.328125 Z M 5.671875 -3.140625 C 5.703125 -3.660156 5.613281 -4.097656 5.40625 -4.453125 C 5.195312 -4.816406 4.914062 -5.085938 4.5625 -5.265625 C 4.207031 -5.441406 3.828125 -5.53125 3.421875 -5.53125 C 3.015625 -5.53125 2.632812 -5.441406 2.28125 -5.265625 C 1.9375 -5.085938 1.648438 -4.816406 1.421875 -4.453125 C 1.203125 -4.097656 1.085938 -3.660156 1.078125 -3.140625 Z M 5.671875 -3.140625 "/></g></g></g><g fill="#ffffff" fill-opacity="1"><g transform="translate(21.66504, 60.325852)"><g><path d="M 0.578125 -2.9375 C 0.578125 -3.550781 0.695312 -4.082031 0.9375 -4.53125 C 1.1875 -4.988281 1.523438 -5.335938 1.953125 -5.578125 C 2.378906 -5.816406 2.867188 -5.9375 3.421875 -5.9375 C 4.160156 -5.9375 4.765625 -5.753906 5.234375 -5.390625 C 5.703125 -5.023438 5.992188 -4.53125 6.109375 -3.90625 L 5.609375 -3.90625 C 5.515625 -4.414062 5.269531 -4.8125 4.875 -5.09375 C 4.476562 -5.382812 3.992188 -5.53125 3.421875 -5.53125 C 2.992188 -5.53125 2.601562 -5.429688 2.25 -5.234375 C 1.894531 -5.046875 1.609375 -4.753906 1.390625 -4.359375 C 1.179688 -3.972656 1.078125 -3.5 1.078125 -2.9375 C 1.078125 -2.363281 1.179688 -1.882812 1.390625 -1.5 C 1.609375 -1.113281 1.894531 -0.820312 2.25 -0.625 C 2.601562 -0.425781 2.992188 -0.328125 3.421875 -0.328125 C 3.992188 -0.328125 4.476562 -0.472656 4.875 -0.765625 C 5.269531 -1.054688 5.515625 -1.453125 5.609375 -1.953125 L 6.109375 -1.953125 C 5.992188 -1.335938 5.695312 -0.84375 5.21875 -0.46875 C 4.75 -0.09375 4.148438 0.09375 3.421875 0.09375 C 2.867188 0.09375 2.378906 -0.0234375 1.953125 -0.265625 C 1.523438 -0.515625 1.1875 -0.867188 0.9375 -1.328125 C 0.695312 -1.785156 0.578125 -2.320312 0.578125 -2.9375 Z M 0.578125 -2.9375 "/></g></g></g><g fill="#ffffff" fill-opacity="1"><g transform="translate(27.958936, 60.325852)"><g><path d="M 5.84375 -5.859375 L 5.84375 0 L 5.359375 0 L 5.359375 -1.28125 C 5.191406 -0.832031 4.914062 -0.488281 4.53125 -0.25 C 4.144531 -0.0195312 3.703125 0.09375 3.203125 0.09375 C 2.503906 0.09375 1.929688 -0.117188 1.484375 -0.546875 C 1.046875 -0.972656 0.828125 -1.609375 0.828125 -2.453125 L 0.828125 -5.859375 L 1.3125 -5.859375 L 1.3125 -2.484375 C 1.3125 -1.785156 1.484375 -1.25 1.828125 -0.875 C 2.179688 -0.507812 2.660156 -0.328125 3.265625 -0.328125 C 3.898438 -0.328125 4.40625 -0.523438 4.78125 -0.921875 C 5.164062 -1.328125 5.359375 -1.925781 5.359375 -2.71875 L 5.359375 -5.859375 Z M 5.84375 -5.859375 "/></g></g></g><g fill="#ffffff" fill-opacity="1"><g transform="translate(34.27442, 60.325852)"><g><path d="M 1.375 -4.65625 C 1.519531 -5.082031 1.773438 -5.410156 2.140625 -5.640625 C 2.503906 -5.867188 2.972656 -5.984375 3.546875 -5.984375 L 3.546875 -5.46875 L 3.375 -5.46875 C 2.800781 -5.46875 2.320312 -5.300781 1.9375 -4.96875 C 1.5625 -4.644531 1.375 -4.113281 1.375 -3.375 L 1.375 0 L 0.890625 0 L 0.890625 -5.859375 L 1.375 -5.859375 Z M 1.375 -4.65625 "/></g></g></g><g fill="#ffffff" fill-opacity="1"><g transform="translate(37.642623, 60.325852)"><g><path d="M 1.140625 -7.171875 C 1.015625 -7.171875 0.910156 -7.207031 0.828125 -7.28125 C 0.753906 -7.351562 0.71875 -7.457031 0.71875 -7.59375 C 0.71875 -7.71875 0.753906 -7.816406 0.828125 -7.890625 C 0.910156 -7.972656 1.015625 -8.015625 1.140625 -8.015625 C 1.253906 -8.015625 1.347656 -7.972656 1.421875 -7.890625 C 1.503906 -7.816406 1.546875 -7.71875 1.546875 -7.59375 C 1.546875 -7.457031 1.503906 -7.351562 1.421875 -7.28125 C 1.347656 -7.207031 1.253906 -7.171875 1.140625 -7.171875 Z M 1.375 -5.859375 L 1.375 0 L 0.890625 0 L 0.890625 -5.859375 Z M 1.375 -5.859375 "/></g></g></g><g fill="#ffffff" fill-opacity="1"><g transform="translate(39.499401, 60.325852)"><g><path d="M 3.53125 -5.984375 C 4.226562 -5.984375 4.796875 -5.769531 5.234375 -5.34375 C 5.671875 -4.914062 5.890625 -4.28125 5.890625 -3.4375 L 5.890625 0 L 5.421875 0 L 5.421875 -3.40625 C 5.421875 -4.101562 5.242188 -4.632812 4.890625 -5 C 4.535156 -5.375 4.054688 -5.5625 3.453125 -5.5625 C 2.816406 -5.5625 2.3125 -5.359375 1.9375 -4.953125 C 1.5625 -4.546875 1.375 -3.945312 1.375 -3.15625 L 1.375 0 L 0.890625 0 L 0.890625 -5.859375 L 1.375 -5.859375 L 1.375 -4.625 C 1.539062 -5.0625 1.816406 -5.394531 2.203125 -5.625 C 2.585938 -5.863281 3.03125 -5.984375 3.53125 -5.984375 Z M 3.53125 -5.984375 "/></g></g></g><g fill="#ffffff" fill-opacity="1"><g transform="translate(45.814886, 60.325852)"><g><path d="M 3.40625 -5.9375 C 4.03125 -5.9375 4.554688 -5.785156 4.984375 -5.484375 C 5.421875 -5.191406 5.722656 -4.8125 5.890625 -4.34375 L 5.890625 -5.859375 L 6.375 -5.859375 L 6.375 0.1875 C 6.375 0.726562 6.253906 1.203125 6.015625 1.609375 C 5.785156 2.015625 5.46875 2.328125 5.0625 2.546875 C 4.65625 2.765625 4.207031 2.875 3.71875 2.875 C 2.976562 2.875 2.367188 2.695312 1.890625 2.34375 C 1.410156 1.988281 1.09375 1.515625 0.9375 0.921875 L 1.421875 0.921875 C 1.566406 1.390625 1.835938 1.757812 2.234375 2.03125 C 2.628906 2.3125 3.125 2.453125 3.71875 2.453125 C 4.125 2.453125 4.492188 2.359375 4.828125 2.171875 C 5.160156 1.992188 5.421875 1.734375 5.609375 1.390625 C 5.796875 1.046875 5.890625 0.644531 5.890625 0.1875 L 5.890625 -1.53125 C 5.722656 -1.0625 5.421875 -0.671875 4.984375 -0.359375 C 4.546875 -0.0546875 4.019531 0.09375 3.40625 0.09375 C 2.863281 0.09375 2.378906 -0.03125 1.953125 -0.28125 C 1.523438 -0.53125 1.1875 -0.882812 0.9375 -1.34375 C 0.695312 -1.800781 0.578125 -2.332031 0.578125 -2.9375 C 0.578125 -3.539062 0.695312 -4.066406 0.9375 -4.515625 C 1.1875 -4.972656 1.523438 -5.320312 1.953125 -5.5625 C 2.378906 -5.8125 2.863281 -5.9375 3.40625 -5.9375 Z M 5.890625 -2.9375 C 5.890625 -3.445312 5.785156 -3.894531 5.578125 -4.28125 C 5.367188 -4.675781 5.078125 -4.976562 4.703125 -5.1875 C 4.335938 -5.40625 3.929688 -5.515625 3.484375 -5.515625 C 3.003906 -5.515625 2.582031 -5.410156 2.21875 -5.203125 C 1.863281 -5.003906 1.582031 -4.707031 1.375 -4.3125 C 1.175781 -3.925781 1.078125 -3.46875 1.078125 -2.9375 C 1.078125 -2.40625 1.175781 -1.941406 1.375 -1.546875 C 1.582031 -1.160156 1.867188 -0.863281 2.234375 -0.65625 C 2.597656 -0.445312 3.015625 -0.34375 3.484375 -0.34375 C 3.929688 -0.34375 4.335938 -0.445312 4.703125 -0.65625 C 5.078125 -0.875 5.367188 -1.175781 5.578125 -1.5625 C 5.785156 -1.957031 5.890625 -2.414062 5.890625 -2.9375 Z M 5.890625 -2.9375 "/></g></g></g><g fill="#ffffff" fill-opacity="1"><g transform="translate(52.670165, 60.325852)"><g/></g></g><g fill="#ffffff" fill-opacity="1"><g transform="translate(55.30425, 60.325852)"><g><path d="M 7.953125 -7.421875 L 7.953125 0 L 7.46875 0 L 7.46875 -6.40625 L 4.625 0 L 4.234375 0 L 1.375 -6.40625 L 1.375 0 L 0.890625 0 L 0.890625 -7.421875 L 1.40625 -7.421875 L 4.421875 -0.640625 L 7.453125 -7.421875 Z M 7.953125 -7.421875 "/></g></g></g><g fill="#ffffff" fill-opacity="1"><g transform="translate(63.74652, 60.325852)"><g><path d="M 1.375 -7.171875 L 1.375 -4 L 4.390625 -4 L 4.390625 -3.59375 L 1.375 -3.59375 L 1.375 -0.40625 L 4.71875 -0.40625 L 4.71875 0 L 0.890625 0 L 0.890625 -7.578125 L 4.71875 -7.578125 L 4.71875 -7.171875 Z M 1.375 -7.171875 "/></g></g></g><g fill="#ffffff" fill-opacity="1"><g transform="translate(68.636942, 60.325852)"><g><path d="M 4.984375 0 L 3.03125 -3.234375 L 1.375 -3.234375 L 1.375 0 L 0.890625 0 L 0.890625 -7.578125 L 2.96875 -7.578125 C 3.8125 -7.578125 4.441406 -7.378906 4.859375 -6.984375 C 5.285156 -6.585938 5.5 -6.0625 5.5 -5.40625 C 5.5 -4.820312 5.332031 -4.34375 5 -3.96875 C 4.675781 -3.59375 4.203125 -3.359375 3.578125 -3.265625 L 5.5625 0 Z M 1.375 -3.640625 L 2.984375 -3.640625 C 3.660156 -3.640625 4.160156 -3.800781 4.484375 -4.125 C 4.816406 -4.445312 4.984375 -4.875 4.984375 -5.40625 C 4.984375 -6.5625 4.3125 -7.140625 2.96875 -7.140625 L 1.375 -7.140625 Z M 1.375 -3.640625 "/></g></g></g><g fill="#ffffff" fill-opacity="1"><g transform="translate(74.28308, 60.325852)"><g><path d="M 6.3125 0 L 5.8125 0 L 1.375 -6.78125 L 1.375 0 L 0.890625 0 L 0.890625 -7.5625 L 1.375 -7.5625 L 5.8125 -0.8125 L 5.8125 -7.5625 L 6.3125 -7.5625 Z M 6.3125 0 "/></g></g></g><g fill="#ffffff" fill-opacity="1"><g transform="translate(81.073583, 60.325852)"><g/></g></g><g fill="#ffffff" fill-opacity="1"><g transform="translate(83.707669, 60.325852)"><g><path d="M 5.1875 -1.9375 L 1.59375 -1.9375 L 0.859375 0 L 0.328125 0 L 3.125 -7.40625 L 3.65625 -7.40625 L 6.4375 0 L 5.90625 0 Z M 5.03125 -2.359375 L 3.390625 -6.765625 L 1.734375 -2.359375 Z M 5.03125 -2.359375 "/></g></g></g><g fill="#ffffff" fill-opacity="1"><g transform="translate(90.066334, 60.325852)"><g><path d="M 1.375 -4.3125 C 1.539062 -4.789062 1.835938 -5.179688 2.265625 -5.484375 C 2.703125 -5.785156 3.234375 -5.9375 3.859375 -5.9375 C 4.398438 -5.9375 4.882812 -5.8125 5.3125 -5.5625 C 5.738281 -5.320312 6.070312 -4.972656 6.3125 -4.515625 C 6.5625 -4.066406 6.6875 -3.539062 6.6875 -2.9375 C 6.6875 -2.332031 6.5625 -1.800781 6.3125 -1.34375 C 6.070312 -0.882812 5.738281 -0.53125 5.3125 -0.28125 C 4.882812 -0.03125 4.398438 0.09375 3.859375 0.09375 C 3.242188 0.09375 2.71875 -0.0546875 2.28125 -0.359375 C 1.84375 -0.671875 1.539062 -1.0625 1.375 -1.53125 L 1.375 2.765625 L 0.890625 2.765625 L 0.890625 -5.859375 L 1.375 -5.859375 Z M 6.1875 -2.9375 C 6.1875 -3.46875 6.082031 -3.925781 5.875 -4.3125 C 5.675781 -4.707031 5.394531 -5.003906 5.03125 -5.203125 C 4.664062 -5.410156 4.25 -5.515625 3.78125 -5.515625 C 3.320312 -5.515625 2.910156 -5.40625 2.546875 -5.1875 C 2.179688 -4.976562 1.894531 -4.675781 1.6875 -4.28125 C 1.476562 -3.894531 1.375 -3.445312 1.375 -2.9375 C 1.375 -2.414062 1.476562 -1.957031 1.6875 -1.5625 C 1.894531 -1.175781 2.179688 -0.875 2.546875 -0.65625 C 2.910156 -0.445312 3.320312 -0.34375 3.78125 -0.34375 C 4.25 -0.34375 4.664062 -0.445312 5.03125 -0.65625 C 5.394531 -0.863281 5.675781 -1.160156 5.875 -1.546875 C 6.082031 -1.941406 6.1875 -2.40625 6.1875 -2.9375 Z M 6.1875 -2.9375 "/></g></g></g><g fill="#ffffff" fill-opacity="1"><g transform="translate(96.921613, 60.325852)"><g><path d="M 1.375 -4.3125 C 1.539062 -4.789062 1.835938 -5.179688 2.265625 -5.484375 C 2.703125 -5.785156 3.234375 -5.9375 3.859375 -5.9375 C 4.398438 -5.9375 4.882812 -5.8125 5.3125 -5.5625 C 5.738281 -5.320312 6.070312 -4.972656 6.3125 -4.515625 C 6.5625 -4.066406 6.6875 -3.539062 6.6875 -2.9375 C 6.6875 -2.332031 6.5625 -1.800781 6.3125 -1.34375 C 6.070312 -0.882812 5.738281 -0.53125 5.3125 -0.28125 C 4.882812 -0.03125 4.398438 0.09375 3.859375 0.09375 C 3.242188 0.09375 2.71875 -0.0546875 2.28125 -0.359375 C 1.84375 -0.671875 1.539062 -1.0625 1.375 -1.53125 L 1.375 2.765625 L 0.890625 2.765625 L 0.890625 -5.859375 L 1.375 -5.859375 Z M 6.1875 -2.9375 C 6.1875 -3.46875 6.082031 -3.925781 5.875 -4.3125 C 5.675781 -4.707031 5.394531 -5.003906 5.03125 -5.203125 C 4.664062 -5.410156 4.25 -5.515625 3.78125 -5.515625 C 3.320312 -5.515625 2.910156 -5.40625 2.546875 -5.1875 C 2.179688 -4.976562 1.894531 -4.675781 1.6875 -4.28125 C 1.476562 -3.894531 1.375 -3.445312 1.375 -2.9375 C 1.375 -2.414062 1.476562 -1.957031 1.6875 -1.5625 C 1.894531 -1.175781 2.179688 -0.875 2.546875 -0.65625 C 2.910156 -0.445312 3.320312 -0.34375 3.78125 -0.34375 C 4.25 -0.34375 4.664062 -0.445312 5.03125 -0.65625 C 5.394531 -0.863281 5.675781 -1.160156 5.875 -1.546875 C 6.082031 -1.941406 6.1875 -2.40625 6.1875 -2.9375 Z M 6.1875 -2.9375 "/></g></g></g></svg>