<svg xmlns="http://www.w3.org/2000/svg" version="1.1" xmlns:xlink="http://www.w3.org/1999/xlink" xmlns:svgjs="http://svgjs.dev/svgjs" width="100" height="100"><svg xmlns="http://www.w3.org/2000/svg" xmlns:xlink="http://www.w3.org/1999/xlink" width="100" zoomAndPan="magnify" viewBox="0 0 75 74.999997" height="100" preserveAspectRatio="xMidYMid meet" version="1.0"><defs><clipPath id="SvgjsClipPath1041"><path d="M 1 27 L 48 27 L 48 74 L 1 74 Z M 1 27 " clip-rule="nonzero"></path></clipPath><clipPath id="SvgjsClipPath1040"><path d="M -8.027344 34.140625 L 24.46875 4.105469 L 69.265625 52.570312 L 36.769531 82.605469 Z M -8.027344 34.140625 " clip-rule="nonzero"></path></clipPath><clipPath id="SvgjsClipPath1039"><path d="M -8.027344 34.140625 L 24.46875 4.105469 L 69.265625 52.570312 L 36.769531 82.605469 Z M -8.027344 34.140625 " clip-rule="nonzero"></path></clipPath><clipPath id="SvgjsClipPath1038"><path d="M 24 5 L 71 5 L 71 52 L 24 52 Z M 24 5 " clip-rule="nonzero"></path></clipPath><clipPath id="SvgjsClipPath1037"><path d="M 15.070312 12.789062 L 47.566406 -17.246094 L 92.363281 31.222656 L 59.867188 61.257812 Z M 15.070312 12.789062 " clip-rule="nonzero"></path></clipPath><clipPath id="SvgjsClipPath1036"><path d="M 15.070312 12.789062 L 47.566406 -17.246094 L 92.363281 31.222656 L 59.867188 61.257812 Z M 15.070312 12.789062 " clip-rule="nonzero"></path></clipPath></defs><g clip-path="url(#243fe870ec)"><g clip-path="url(#a982ec71e3)"><g clip-path="url(#6c451870b2)"><path fill="#2563eb" d="M 47.074219 28.757812 L 7.667969 27.003906 C 0.0585938 26.667969 -1.226562 41.492188 7.792969 41.738281 L 32.3125 42.402344 L 30.4375 67.074219 C 29.867188 74.589844 44.523438 75.382812 44.941406 67.746094 Z M 47.074219 28.757812 " fill-opacity="1" fill-rule="nonzero"></path></g></g></g><g clip-path="url(#02c5165599)"><g clip-path="url(#9c76d974cc)"><g clip-path="url(#3c826a6eea)"><path fill="#2563eb" d="M 70.171875 7.40625 L 30.765625 5.65625 C 23.15625 5.316406 21.871094 20.144531 30.890625 20.390625 L 55.410156 21.054688 L 53.535156 45.726562 C 52.964844 53.238281 67.621094 54.035156 68.039062 46.398438 Z M 70.171875 7.40625 " fill-opacity="1" fill-rule="nonzero"></path></g></g></g></svg><style>@media (prefers-color-scheme: light) { :root { filter: none; } }
@media (prefers-color-scheme: dark) { :root { filter: none; } }
</style></svg>